<svg width="133" height="133" viewBox="0 0 133 133" fill="none" xmlns="http://www.w3.org/2000/svg">
<circle cx="66.7441" cy="66.4609" r="66.0176" fill="#0059FF"/>
<path d="M56.3132 46.4759H64.924V72.9247C64.924 75.8944 64.2147 78.4929 62.7962 80.7202C61.3909 82.9474 59.4221 84.6842 56.8899 85.9304C54.3577 87.1634 51.4079 87.7798 48.0405 87.7798C44.6598 87.7798 41.7034 87.1634 39.1712 85.9304C36.639 84.6842 34.6702 82.9474 33.2649 80.7202C31.8596 78.4929 31.157 75.8944 31.157 72.9247V46.4759H39.7678V72.1889C39.7678 73.7401 40.1058 75.1188 40.782 76.3253C41.4714 77.5317 42.4392 78.4796 43.6854 79.169C44.9316 79.8584 46.3833 80.2031 48.0405 80.2031C49.7109 80.2031 51.1626 79.8584 52.3956 79.169C53.6418 78.4796 54.603 77.5317 55.2791 76.3253C55.9685 75.1188 56.3132 73.7401 56.3132 72.1889V46.4759ZM70.4574 53.5753V46.4759H103.906V53.5753H91.4375V87.2031H82.9261V53.5753H70.4574Z" fill="white"/>
</svg>
